<svg width="22" height="20" viewBox="0 0 22 20" fill="none" xmlns="http://www.w3.org/2000/svg">
<path fill-rule="evenodd" clip-rule="evenodd" d="M19.4843 3.91098C19.6107 3.77716 19.6794 3.60018 19.6762 3.41731C19.6729 3.23444 19.5978 3.05996 19.4668 2.93063C19.3358 2.8013 19.159 2.72721 18.9737 2.72399C18.7884 2.72076 18.6091 2.78864 18.4736 2.91333L3.2166 17.9722C3.14634 18.0368 3.08998 18.1147 3.05089 18.2013C3.01181 18.2879 2.99079 18.3814 2.98909 18.4761C2.9874 18.5709 3.00506 18.6651 3.04103 18.7529C3.077 18.8408 3.13054 18.9207 3.19845 18.9877C3.26636 19.0547 3.34726 19.1076 3.43631 19.1431C3.52536 19.1786 3.62074 19.196 3.71677 19.1944C3.81279 19.1927 3.90749 19.1719 3.99522 19.1334C4.08295 19.0948 4.1619 19.0392 4.22738 18.9698L7.12143 16.1133C8.37822 16.6856 9.81714 17.0592 11.3505 17.0592C13.8469 17.0592 16.0916 16.07 17.7088 14.8446C18.5193 14.231 19.184 13.5496 19.6493 12.887C20.107 12.2357 20.4093 11.5524 20.4093 10.9416C20.4093 10.3307 20.107 9.64745 19.6493 8.99709C19.184 8.33356 18.5193 7.65215 17.7088 7.03945C17.4513 6.84368 17.1767 6.65356 16.8887 6.4738L19.4843 3.91098ZM14.3351 8.99521L13.2862 10.0286C13.4774 10.4238 13.5398 10.8677 13.4648 11.2994C13.3897 11.731 13.181 12.129 12.8673 12.4387C12.5535 12.7483 12.1503 12.9544 11.713 13.0284C11.2757 13.1025 10.8259 13.0409 10.4255 12.8522L9.3766 13.8874C10.0642 14.3368 10.8881 14.5378 11.7087 14.4563C12.5293 14.3748 13.2961 14.0159 13.8792 13.4403C14.4624 12.8647 14.826 12.1079 14.9086 11.298C14.9912 10.488 14.7875 9.67486 14.3323 8.99615" fill="#ACBEFF"/>
<path d="M11.9893 7.46868C12.0286 7.47593 12.069 7.47373 12.1072 7.46226C12.1454 7.45079 12.1802 7.43039 12.2087 7.4028L14.0681 5.5675C14.097 5.53944 14.118 5.50439 14.1288 5.46584C14.1397 5.42729 14.1402 5.3866 14.1301 5.34783C14.1201 5.30906 14.0999 5.27356 14.0716 5.24489C14.0433 5.21622 14.0079 5.19538 13.9689 5.18445C13.1168 4.94738 12.2358 4.8261 11.3505 4.82397C8.85404 4.82397 6.60936 5.81315 4.99212 7.03856C4.1816 7.65221 3.51697 8.33362 3.05067 8.99621C2.59297 9.6475 2.29164 10.3308 2.29164 10.9416C2.29164 11.5524 2.59392 12.2357 3.05067 12.8861C3.50443 13.5147 4.04055 14.0812 4.64503 14.5708C4.69026 14.6077 4.74786 14.6265 4.80647 14.6236C4.86508 14.6206 4.92043 14.5961 4.96161 14.5548L7.76507 11.7877C7.79303 11.7596 7.8137 11.7253 7.82532 11.6876C7.83694 11.6499 7.83917 11.61 7.83182 11.5713C7.72849 11.01 7.76455 10.4323 7.93693 9.88775C8.1093 9.34321 8.41284 8.84802 8.82156 8.44462C9.23027 8.04121 9.73197 7.74161 10.2837 7.57148C10.8354 7.40134 11.4206 7.36575 11.9893 7.46774" fill="#ACBEFF"/>
</svg>
