<svg width="20" height="20" viewBox="0 0 20 20" fill="none" xmlns="http://www.w3.org/2000/svg">
<path d="M10 3.33325C5.45455 3.33325 1.57273 6.16052 0 10.1514C1.57273 14.1423 5.45455 16.9696 10 16.9696C14.5455 16.9696 18.4273 14.1423 20 10.1514C18.4273 6.16052 14.5455 3.33325 10 3.33325ZM10 14.6969C7.49091 14.6969 5.45455 12.6605 5.45455 10.1514C5.45455 7.64234 7.49091 5.60598 10 5.60598C12.5091 5.60598 14.5455 7.64234 14.5455 10.1514C14.5455 12.6605 12.5091 14.6969 10 14.6969ZM10 7.42416C8.49091 7.42416 7.27273 8.64234 7.27273 10.1514C7.27273 11.6605 8.49091 12.8787 10 12.8787C11.5091 12.8787 12.7273 11.6605 12.7273 10.1514C12.7273 8.64234 11.5091 7.42416 10 7.42416Z" fill="#ACBEFF"/>
</svg>
