<svg viewBox="0 0 168 20" fill="none" xmlns="http://www.w3.org/2000/svg">
<rect width="36" height="2" transform="translate(11 9)" fill="#ACBEFF"/>
<rect width="36" height="2" transform="translate(47 9)" fill="#ACBEFF"/>
<rect width="36" height="2" transform="translate(83 9)" fill="#ACBEFF"/>
<rect width="36" height="2" transform="translate(119 9)" fill="#BDC1CF"/>
<rect x="148.5" y="0.5" width="19" height="19" rx="9.5" fill="#888EA1"/>
<rect x="148.5" y="0.5" width="19" height="19" rx="9.5" stroke="#ACBEFF"/>
<circle cx="158" cy="10" r="2" fill="#ACBEFF"/>
<rect x="0.5" width="20" height="20" rx="10" fill="#ACBEFF"/>
<path d="M9.55321 12.3866C9.41988 12.3866 9.29321 12.3333 9.19988 12.2399L7.31321 10.3533C7.11988 10.1599 7.11988 9.83994 7.31321 9.64661C7.50655 9.45328 7.82655 9.45328 8.01988 9.64661L9.55321 11.1799L12.9799 7.75328C13.1732 7.55994 13.4932 7.55994 13.6865 7.75328C13.8799 7.94661 13.8799 8.26661 13.6865 8.45994L9.90655 12.2399C9.81321 12.3333 9.68655 12.3866 9.55321 12.3866Z" fill="white" fill-opacity="0.87"/>
<rect x="37.5" width="20" height="20" rx="10" fill="#ACBEFF"/>
<path d="M46.5532 12.3866C46.4199 12.3866 46.2932 12.3333 46.1999 12.2399L44.3132 10.3533C44.1199 10.1599 44.1199 9.83994 44.3132 9.64661C44.5065 9.45328 44.8265 9.45328 45.0199 9.64661L46.5532 11.1799L49.9799 7.75328C50.1732 7.55994 50.4932 7.55994 50.6865 7.75328C50.8799 7.94661 50.8799 8.26661 50.6865 8.45994L46.9065 12.2399C46.8132 12.3333 46.6865 12.3866 46.5532 12.3866Z" fill="white" fill-opacity="0.87"/>
<rect x="74.5" width="20" height="20" rx="10" fill="#ACBEFF"/>
<path d="M83.5532 12.3866C83.4199 12.3866 83.2932 12.3333 83.1999 12.2399L81.3132 10.3533C81.1199 10.1599 81.1199 9.83994 81.3132 9.64661C81.5065 9.45328 81.8265 9.45328 82.0199 9.64661L83.5532 11.1799L86.9799 7.75328C87.1732 7.55994 87.4932 7.55994 87.6865 7.75328C87.8799 7.94661 87.8799 8.26661 87.6865 8.45994L83.9065 12.2399C83.8132 12.3333 83.6865 12.3866 83.5532 12.3866Z" fill="white" fill-opacity="0.87"/>
<rect x="111.5" width="20" height="20" rx="10" fill="#ACBEFF"/>
<path d="M120.553 12.3866C120.42 12.3866 120.293 12.3333 120.2 12.2399L118.313 10.3533C118.12 10.1599 118.12 9.83994 118.313 9.64661C118.507 9.45328 118.827 9.45328 119.02 9.64661L120.553 11.1799L123.98 7.75328C124.173 7.55994 124.493 7.55994 124.687 7.75328C124.88 7.94661 124.88 8.26661 124.687 8.45994L120.907 12.2399C120.813 12.3333 120.687 12.3866 120.553 12.3866Z" fill="white" fill-opacity="0.87"/>
</svg>
