<svg width="169" height="20" viewBox="0 0 169 20" fill="none" xmlns="http://www.w3.org/2000/svg">
<rect width="36" height="2" transform="translate(11 9)" fill="#ACBEFF"/>
<rect width="36" height="2" transform="translate(47 9)" fill="#ACBEFF"/>
<rect width="36" height="2" transform="translate(83 9)" fill="#ACBEFF"/>
<rect width="36" height="2" transform="translate(119 9)" fill="#BDC1CF"/>
<rect x="0.5" width="20" height="20" rx="10" fill="#ACBEFF"/>
<path d="M9.55321 12.3867C9.41988 12.3867 9.29321 12.3334 9.19988 12.2401L7.31321 10.3534C7.11988 10.1601 7.11988 9.84007 7.31321 9.64673C7.50655 9.4534 7.82655 9.4534 8.01988 9.64673L9.55321 11.1801L12.9799 7.7534C13.1732 7.56007 13.4932 7.56007 13.6865 7.7534C13.8799 7.94673 13.8799 8.26673 13.6865 8.46006L9.90655 12.2401C9.81321 12.3334 9.68655 12.3867 9.55321 12.3867Z" fill="white" fill-opacity="0.87"/>
<rect x="37.5" width="20" height="20" rx="10" fill="#ACBEFF"/>
<path d="M46.5532 12.3867C46.4199 12.3867 46.2932 12.3334 46.1999 12.2401L44.3132 10.3534C44.1199 10.1601 44.1199 9.84007 44.3132 9.64673C44.5065 9.4534 44.8265 9.4534 45.0199 9.64673L46.5532 11.1801L49.9799 7.7534C50.1732 7.56007 50.4932 7.56007 50.6865 7.7534C50.8799 7.94673 50.8799 8.26673 50.6865 8.46006L46.9065 12.2401C46.8132 12.3334 46.6865 12.3867 46.5532 12.3867Z" fill="white" fill-opacity="0.87"/>
<rect x="74.5" width="20" height="20" rx="10" fill="#ACBEFF"/>
<path d="M83.5532 12.3867C83.4199 12.3867 83.2932 12.3334 83.1999 12.2401L81.3132 10.3534C81.1199 10.1601 81.1199 9.84007 81.3132 9.64673C81.5065 9.4534 81.8265 9.4534 82.0199 9.64673L83.5532 11.1801L86.9799 7.7534C87.1732 7.56007 87.4932 7.56007 87.6865 7.7534C87.8799 7.94673 87.8799 8.26673 87.6865 8.46006L83.9065 12.2401C83.8132 12.3334 83.6865 12.3867 83.5532 12.3867Z" fill="white" fill-opacity="0.87"/>
<rect x="111.5" width="20" height="20" rx="10" fill="#ACBEFF"/>
<path d="M120.553 12.3867C120.42 12.3867 120.293 12.3334 120.2 12.2401L118.313 10.3534C118.12 10.1601 118.12 9.84007 118.313 9.64673C118.507 9.4534 118.827 9.4534 119.02 9.64673L120.553 11.1801L123.98 7.7534C124.173 7.56007 124.493 7.56007 124.687 7.7534C124.88 7.94673 124.88 8.26673 124.687 8.46006L120.907 12.2401C120.813 12.3334 120.687 12.3867 120.553 12.3867Z" fill="white" fill-opacity="0.87"/>
<rect x="148.5" width="20" height="20" rx="10" fill="#ACBEFF"/>
<path d="M157.553 12.3867C157.42 12.3867 157.293 12.3334 157.2 12.2401L155.313 10.3534C155.12 10.1601 155.12 9.84007 155.313 9.64673C155.507 9.4534 155.827 9.4534 156.02 9.64673L157.553 11.1801L160.98 7.7534C161.173 7.56007 161.493 7.56007 161.687 7.7534C161.88 7.94673 161.88 8.26673 161.687 8.46006L157.907 12.2401C157.813 12.3334 157.687 12.3867 157.553 12.3867Z" fill="white" fill-opacity="0.87"/>
</svg>
