<svg width="4" height="14" viewBox="0 0 4 14" fill="none" xmlns="http://www.w3.org/2000/svg">
<path d="M2.33341 10.3333C2.77544 10.3333 3.19937 10.5088 3.51193 10.8214C3.82449 11.134 4.00008 11.5579 4.00008 11.9999C4.00008 12.4419 3.82449 12.8659 3.51193 13.1784C3.19937 13.491 2.77544 13.6666 2.33341 13.6666C1.89139 13.6666 1.46746 13.491 1.1549 13.1784C0.842343 12.8659 0.666748 12.4419 0.666748 11.9999C0.666748 11.5579 0.842343 11.134 1.1549 10.8214C1.46746 10.5088 1.89139 10.3333 2.33341 10.3333ZM2.33341 5.33325C2.77544 5.33325 3.19937 5.50885 3.51193 5.82141C3.82449 6.13397 4.00008 6.55789 4.00008 6.99992C4.00008 7.44195 3.82449 7.86587 3.51193 8.17843C3.19937 8.49099 2.77544 8.66659 2.33341 8.66659C1.89139 8.66659 1.46746 8.49099 1.1549 8.17843C0.842343 7.86587 0.666748 7.44195 0.666748 6.99992C0.666748 6.55789 0.842343 6.13397 1.1549 5.82141C1.46746 5.50885 1.89139 5.33325 2.33341 5.33325ZM2.33341 0.333252C2.77544 0.333252 3.19937 0.508847 3.51193 0.821407C3.82449 1.13397 4.00008 1.55789 4.00008 1.99992C4.00008 2.44195 3.82449 2.86587 3.51193 3.17843C3.19937 3.49099 2.77544 3.66659 2.33341 3.66659C1.89139 3.66659 1.46746 3.49099 1.1549 3.17843C0.842343 2.86587 0.666748 2.44195 0.666748 1.99992C0.666748 1.55789 0.842343 1.13397 1.1549 0.821407C1.46746 0.508847 1.89139 0.333252 2.33341 0.333252Z" fill="white" fill-opacity="0.87"/>
</svg>
