<svg width="12" height="12" viewBox="0 0 12 12" fill="none" xmlns="http://www.w3.org/2000/svg">
<path d="M8.43999 11.2502H3.55999C3.31647 11.2505 3.08211 11.1573 2.90532 10.9898C2.72853 10.8223 2.62281 10.5933 2.60999 10.3502L2.17999 2.66016H9.81999L9.38999 10.3502C9.37718 10.5933 9.27146 10.8223 9.09467 10.9898C8.91788 11.1573 8.68352 11.2505 8.43999 11.2502Z" stroke="#F26B76" stroke-miterlimit="10"/>
<path d="M1.22501 2.66016H10.775" stroke="#F26B76" stroke-miterlimit="10"/>
<path d="M5.045 0.75H6.955C7.20828 0.75 7.45119 0.850616 7.63028 1.02971C7.80938 1.20881 7.91 1.45172 7.91 1.705V2.66H4.09V1.705C4.09 1.45172 4.19061 1.20881 4.36971 1.02971C4.54881 0.850616 4.79171 0.75 5.045 0.75Z" stroke="#F26B76" stroke-miterlimit="10"/>
<path d="M6 4.08984V9.81984" stroke="#F26B76" stroke-miterlimit="10"/>
<path d="M7.91 4.08984V9.81984" stroke="#F26B76" stroke-miterlimit="10"/>
<path d="M4.09 4.08984V9.81984" stroke="#F26B76" stroke-miterlimit="10"/>
</svg>
