<svg width="16" height="16" viewBox="0 0 16 16" fill="none" xmlns="http://www.w3.org/2000/svg">
<path d="M8.00001 13.3335C5.06001 13.3335 2.66668 10.9402 2.66668 8.00016C2.66668 5.06016 5.06001 2.66683 8.00001 2.66683C10.94 2.66683 13.3333 5.06016 13.3333 8.00016C13.3333 10.9402 10.94 13.3335 8.00001 13.3335ZM8.00001 1.3335C7.12453 1.3335 6.25762 1.50593 5.44879 1.84097C4.63995 2.176 3.90502 2.66706 3.28596 3.28612C2.03572 4.53636 1.33334 6.23205 1.33334 8.00016C1.33334 9.76827 2.03572 11.464 3.28596 12.7142C3.90502 13.3333 4.63995 13.8243 5.44879 14.1594C6.25762 14.4944 7.12453 14.6668 8.00001 14.6668C9.76812 14.6668 11.4638 13.9644 12.7141 12.7142C13.9643 11.464 14.6667 9.76827 14.6667 8.00016C14.6667 7.12468 14.4942 6.25778 14.1592 5.44894C13.8242 4.6401 13.3331 3.90517 12.7141 3.28612C12.095 2.66706 11.3601 2.176 10.5512 1.84097C9.7424 1.50593 8.87549 1.3335 8.00001 1.3335ZM6.66668 11.0002L10.6667 8.00016L6.66668 5.00016V11.0002Z" fill="white" fill-opacity="0.87"/>
</svg>
