<svg width="20" height="20" viewBox="0 0 20 20" fill="none" xmlns="http://www.w3.org/2000/svg">
<path d="M6.66699 9.99998C6.66699 10.442 6.4914 10.8659 6.17884 11.1785C5.86628 11.4911 5.44235 11.6666 5.00033 11.6666C4.5583 11.6666 4.13437 11.4911 3.82181 11.1785C3.50925 10.8659 3.33366 10.442 3.33366 9.99998C3.33366 9.55795 3.50925 9.13403 3.82181 8.82147C4.13437 8.50891 4.5583 8.33331 5.00033 8.33331C5.44235 8.33331 5.86628 8.50891 6.17884 8.82147C6.4914 9.13403 6.66699 9.55795 6.66699 9.99998ZM11.667 9.99998C11.667 10.442 11.4914 10.8659 11.1788 11.1785C10.8663 11.4911 10.4424 11.6666 10.0003 11.6666C9.5583 11.6666 9.13437 11.4911 8.82181 11.1785C8.50925 10.8659 8.33366 10.442 8.33366 9.99998C8.33366 9.55795 8.50925 9.13403 8.82181 8.82147C9.13437 8.50891 9.5583 8.33331 10.0003 8.33331C10.4424 8.33331 10.8663 8.50891 11.1788 8.82147C11.4914 9.13403 11.667 9.55795 11.667 9.99998ZM16.667 9.99998C16.667 10.442 16.4914 10.8659 16.1788 11.1785C15.8663 11.4911 15.4424 11.6666 15.0003 11.6666C14.5583 11.6666 14.1344 11.4911 13.8218 11.1785C13.5093 10.8659 13.3337 10.442 13.3337 9.99998C13.3337 9.55795 13.5093 9.13403 13.8218 8.82147C14.1344 8.50891 14.5583 8.33331 15.0003 8.33331C15.4424 8.33331 15.8663 8.50891 16.1788 8.82147C16.4914 9.13403 16.667 9.55795 16.667 9.99998Z" fill="white" fill-opacity="0.87"/>
</svg>
