<svg width="48" height="48" viewBox="0 0 48 48" fill="none" xmlns="http://www.w3.org/2000/svg">
<rect width="48" height="48" rx="24" fill="#ACBEFF"/>
<path d="M27.2748 21.75L28.2498 22.725L18.3915 32.5833H17.4165V31.6083L27.2748 21.75ZM31.1748 15.25C30.9582 15.25 30.6332 15.3583 30.4165 15.575L28.4665 17.525L32.4748 21.6417L34.4248 19.5833C34.8582 19.15 34.8582 18.5 34.4248 18.0667L31.9332 15.575C31.7165 15.3583 31.3915 15.25 31.1748 15.25ZM27.2748 18.7167L15.2498 30.6333V34.75H19.3665L31.2832 22.725L27.2748 18.7167ZM19.5832 14.1667V17.4167H22.8332V19.5833H19.5832V22.8333H17.4165V19.5833H14.1665V17.4167H17.4165V14.1667H19.5832Z" fill="white" fill-opacity="0.87"/>
</svg>
