<svg width="100%" height="100%" viewBox="0 0 20 20" fill="none" xmlns="http://www.w3.org/2000/svg">
<path d="M7.6 19C7.38783 19 7.18434 18.9157 7.03431 18.7657C6.88429 18.6157 6.8 18.4122 6.8 18.2V15.8H3.6C3.17565 15.8 2.76869 15.6314 2.46863 15.3314C2.16857 15.0313 2 14.6243 2 14.2V4.6C2 3.712 2.72 3 3.6 3H16.4C16.8243 3 17.2313 3.16857 17.5314 3.46863C17.8314 3.76869 18 4.17565 18 4.6V14.2C18 14.6243 17.8314 15.0313 17.5314 15.3314C17.2313 15.6314 16.8243 15.8 16.4 15.8H11.52L8.56 18.768C8.4 18.92 8.2 19 8 19H7.6ZM8.4 14.2V16.664L10.864 14.2H16.4V4.6H3.6V14.2H8.4Z" fill="#ACBEFF"/>
</svg>
