<svg width="11" height="11" viewBox="0 0 11 11" fill="none" xmlns="http://www.w3.org/2000/svg">
<path fill-rule="evenodd" clip-rule="evenodd" d="M6.21278 2.89697C7.23275 3.81307 7.31696 5.38257 6.40086 6.40254C5.48476 7.42252 3.91526 7.50673 2.89529 6.59063C1.87531 5.67453 1.7911 4.10503 2.7072 3.08506C3.6233 2.06508 5.1928 1.98087 6.21278 2.89697ZM7.98126 6.80778C8.95385 5.19684 8.6785 3.0717 7.22686 1.7679C5.58332 0.291736 3.05429 0.427428 1.57813 2.07097C0.10197 3.71452 0.237661 6.24354 1.88121 7.7197C3.33239 9.0231 5.47391 9.06986 6.97147 7.93157C6.98769 7.94918 7.00489 7.96618 7.02307 7.9825L9.25499 9.98712C9.56678 10.2672 10.0465 10.2414 10.3266 9.92963C10.6066 9.61785 10.5809 9.13809 10.2691 8.85805L8.03715 6.85343C8.01906 6.83719 8.00041 6.82197 7.98126 6.80778Z" fill="#A1A5B5"/>
</svg>
