<svg width="162" height="29" viewBox="0 0 162 29" fill="none" xmlns="http://www.w3.org/2000/svg">
<path d="M4.51855 0.984375H4.69434C7.08691 0.984375 8.2832 3.03516 8.2832 7.13672V9.87598H8.45898C10.0703 9.65137 11.833 9.53906 13.7471 9.53906H14.0986C14.8896 9.53906 16.1396 9.59277 17.8486 9.7002L17.1748 4.74902V4.06055C17.5068 2.00977 18.5322 0.984375 20.251 0.984375H20.7637C23.2734 0.984375 24.5283 3.60645 24.5283 8.85059C24.5283 20.4717 24.0107 26.2822 22.9756 26.2822C22.1846 26.9658 21.3887 27.3076 20.5879 27.3076H20.251C18.083 26.8486 16.999 25.8818 16.999 24.4072C16.999 22.6299 17.1699 20.0664 17.5117 16.7168C17.0234 16.4824 15.4854 16.3115 12.8975 16.2041C11.7549 16.2041 10.1582 16.375 8.10742 16.7168C8 20.2422 7.94629 22.6885 7.94629 24.0557C7.64355 26.6826 6.44727 27.9961 4.35742 27.9961C2.07227 27.5664 0.929688 26.4824 0.929688 24.7441C1.27148 16.4141 1.44238 11.0576 1.44238 8.6748C1.44238 7.52246 1.33008 6.15527 1.10547 4.57324C1.52539 2.18066 2.66309 0.984375 4.51855 0.984375ZM52.6826 9.87598C53.2588 11.4482 53.5469 12.9863 53.5469 14.4902V15.1787C53.5469 19.0361 51.6621 22.3369 47.8926 25.0811C45.5488 26.5654 43.0439 27.3076 40.3779 27.3076H39.1768C34.0986 27.3076 30.4561 25.1445 28.249 20.8184C27.79 19.5781 27.502 18.2109 27.3848 16.7168C27.3848 12.0586 28.9277 8.41602 32.0137 5.78906C35.1094 3.15234 38.6299 1.83398 42.5752 1.83398C46.5107 1.83398 49.8799 4.51465 52.6826 9.87598ZM36.7305 10.8721C35.1777 12.1807 34.4014 14.0703 34.4014 16.541V17.0537C34.4014 18.9482 35.9395 20.0859 39.0156 20.4668H40.5537C44.6553 19.9395 46.7061 18.0059 46.7061 14.666C46.7061 11.8438 45.583 10.0518 43.3369 9.29004C42.6045 9.03613 41.8916 8.90918 41.1982 8.90918C39.7725 8.90918 38.2832 9.56348 36.7305 10.8721ZM66.8184 0.47168C71.9648 0.47168 75.5537 2.98145 77.585 8.00098C77.8193 8.85059 77.9365 9.64648 77.9365 10.3887C77.9365 13.8457 76.0566 16.751 72.2969 19.1045C75.5684 20.9209 77.3311 22.21 77.585 22.9717C77.8389 23.7334 77.9658 24.2021 77.9658 24.3779C77.9658 26.1553 76.8281 27.2344 74.5527 27.6152C72.5996 27.6152 69.2842 25.5205 64.6064 21.3311L64.2549 21.1553C64.3721 22.2881 64.4307 23.1426 64.4307 23.7188C64.4307 26.541 63.1758 28.1377 60.666 28.5088C58.7422 28.5088 57.6045 27.3662 57.2529 25.0811C57.2529 24.5439 57.1943 23.2354 57.0771 21.1553C56.9697 19.0752 56.7988 15.6572 56.5645 10.9014C56.5645 5.73535 58.1025 2.60059 61.1787 1.49707C63.2295 0.813477 65.1094 0.47168 66.8184 0.47168ZM63.5811 12.9521C63.5811 13.2939 64.4893 13.4648 66.3057 13.4648C69.04 13.3867 70.5391 12.4541 70.8027 10.667C70.832 10.4912 70.8467 10.3252 70.8467 10.1689C70.8467 8.68457 69.7334 7.79102 67.5068 7.48828H65.793C64.3867 7.48828 63.6494 8.00098 63.5811 9.02637V12.9521ZM105.095 9.87598C105.671 11.4482 105.959 12.9863 105.959 14.4902V15.1787C105.959 19.0361 104.074 22.3369 100.305 25.0811C97.9609 26.5654 95.4561 27.3076 92.79 27.3076H91.5889C86.5107 27.3076 82.8682 25.1445 80.6611 20.8184C80.2021 19.5781 79.9141 18.2109 79.7969 16.7168C79.7969 12.0586 81.3398 8.41602 84.4258 5.78906C87.5215 3.15234 91.042 1.83398 94.9873 1.83398C98.9229 1.83398 102.292 4.51465 105.095 9.87598ZM89.1426 10.8721C87.5898 12.1807 86.8135 14.0703 86.8135 16.541V17.0537C86.8135 18.9482 88.3516 20.0859 91.4277 20.4668H92.9658C97.0674 19.9395 99.1182 18.0059 99.1182 14.666C99.1182 11.8438 97.9951 10.0518 95.749 9.29004C95.0166 9.03613 94.3037 8.90918 93.6104 8.90918C92.1846 8.90918 90.6953 9.56348 89.1426 10.8721ZM129.396 1.83398C131.682 2.36133 132.824 3.44531 132.824 5.08594V13.9775C132.824 20.4229 132.136 24.4658 130.759 26.1064C129.597 27.249 128.518 27.8203 127.521 27.8203H126.496C124.24 27.8203 122.072 25.6133 119.992 21.1992C118.029 17.6641 116.55 15.4277 115.554 14.4902L116.228 25.1396C116.228 26.624 115.09 27.6299 112.814 28.1572H112.302C110.026 28.1572 108.83 24.8564 108.713 18.2549V16.3652C108.713 10.1445 109.909 6.55566 112.302 5.59863C112.956 5.25684 113.698 5.02734 114.528 4.91016C116.813 4.91016 119.377 7.19043 122.219 11.751C123.801 13.9287 125.056 15.8086 125.983 17.3906C125.983 16.1504 125.954 14.4219 125.896 12.2051C125.837 9.98828 125.808 7.61523 125.808 5.08594C126.364 3.03516 127.219 1.9707 128.371 1.89258L129.396 1.83398ZM149.172 0.647461H150.036C154.138 1.19434 156.188 3.07422 156.188 6.28711C155.769 8.67969 154.626 9.87598 152.761 9.87598C151.364 9.87598 150.339 9.13379 149.685 7.64941H149.523C145.979 7.64941 143.757 9.92969 142.858 14.4902C142.741 15.3008 142.683 15.7549 142.683 15.8525C142.683 18.6455 143.82 20.584 146.096 21.668L148.146 21.8438H148.322C152.199 21.8438 154.138 20.8184 154.138 18.7676H153.786C152.722 18.7676 151.643 18.8213 150.549 18.9287C147.922 18.6357 146.608 17.4395 146.608 15.3398C146.608 12.9473 148.605 11.751 152.6 11.751H153.786C157.624 11.751 160.021 13.2891 160.979 16.3652L161.14 18.0791C161.14 23.167 158.635 26.4727 153.625 27.9961C151.701 28.4453 149.821 28.6699 147.985 28.6699C142.517 28.6699 138.811 26.165 136.867 21.1553C136.184 19.3291 135.842 17.5615 135.842 15.8525C135.842 9.2998 138.747 4.57324 144.558 1.67285C146.394 0.989258 147.932 0.647461 149.172 0.647461Z" fill="#ACBEFF"/>
</svg>
