<svg  viewBox="0 0 151 31" fill="none" xmlns="http://www.w3.org/2000/svg">
<path d="M24.1582 24.9922C24.1992 25.8809 23.8711 26.6328 23.2148 27.2344C22.5449 27.8496 21.8066 28.1641 21 28.1641C20.084 28.1641 19.3457 27.8496 18.7988 27.2344C18.2383 26.6328 17.9238 25.8809 17.8418 24.9922C17.8281 24.8418 17.8145 24.6777 17.8008 24.5273C17.7871 24.418 17.7871 24.3086 17.7734 24.1992C17.7734 24.1719 17.7734 24.1445 17.7734 24.1035C17.7598 24.1035 17.7598 24.0898 17.7598 24.0762V24.0625C17.7598 23.9941 17.7598 23.9395 17.7461 23.8711C17.7461 23.8438 17.7461 23.8164 17.7461 23.7754C17.7324 23.7344 17.7324 23.6934 17.7324 23.6387C17.7324 23.6387 17.7324 23.625 17.7324 23.6113C17.7324 23.5977 17.7188 23.584 17.7188 23.5703C17.7051 23.3379 17.6914 23.0918 17.6641 22.8594C17.6504 22.6953 17.6367 22.5449 17.623 22.3809C17.5957 22.0664 17.582 21.752 17.5547 21.4375C17.4727 20.4805 17.3906 19.5234 17.3223 18.5801C17.1855 18.6074 17.0488 18.6348 16.9121 18.6484C14.2188 19.0176 11.5254 19.4414 8.85938 19.9199C9.07812 22.1621 9.2832 24.4043 9.47461 26.6602C9.50195 27.5352 9.1875 28.2871 8.51758 28.9023C7.86133 29.5039 7.12305 29.8184 6.31641 29.8184C5.40039 29.8184 4.66211 29.5039 4.10156 28.9023C3.55469 28.2871 3.22656 27.5352 3.14453 26.6602C2.59766 20.0566 1.90039 13.4805 1.05273 6.91797C0.984375 6.0293 1.29883 5.27734 1.99609 4.67578C2.69336 4.06055 3.43164 3.74609 4.21094 3.74609C5.1543 3.74609 5.89258 4.06055 6.41211 4.67578C6.94531 5.29102 7.25977 6.0293 7.36914 6.91797C7.65625 9.16016 7.92969 11.4023 8.18945 13.6445C11.0469 13.1523 13.9316 12.7148 16.8164 12.3457L16.2559 5.46875C16.2285 4.58008 16.543 3.82812 17.2129 3.22656C17.8691 2.61133 18.6074 2.29688 19.4141 2.29688C20.3301 2.29688 21.0684 2.61133 21.6289 3.22656C22.1895 3.82812 22.5039 4.58008 22.5859 5.46875C22.8457 8.72266 23.1055 11.9766 23.3652 15.2305C23.6387 18.4844 23.8984 21.7383 24.1582 24.9922ZM42.4102 1.88672C45.6504 2.67969 47.8242 4.60742 48.9316 7.66992C50.0391 10.7188 50.0254 13.7812 48.8906 16.8574C47.7285 19.7832 45.8828 22.2031 43.3125 24.1035C40.7559 26.0039 37.8301 26.4824 34.5352 25.5527C31.2402 24.2812 29.0254 22.0527 27.9043 18.8535C26.7695 15.6543 26.5371 12.4141 27.1934 9.10547C27.8633 6.16602 29.3809 3.92383 31.7461 2.37891C34.1113 0.833984 36.7637 0.164062 39.7168 0.355469C40.8926 0.464844 41.7949 0.970703 42.4102 1.88672ZM42.6562 15.4766C42.9434 14.8477 43.1621 13.959 43.3262 12.8242C43.4766 11.6895 43.4082 10.6367 43.1348 9.66602C42.8477 8.70898 42.1914 8.16211 41.166 8.05273C40.0039 7.94336 39.1699 7.47852 38.6777 6.6582C37.4609 6.67188 36.3535 6.97266 35.3418 7.5332C34.3438 8.08008 33.6875 8.99609 33.3867 10.2539C33.0996 11.6211 33.0723 13.2344 33.3047 15.1211C33.5371 16.9941 34.2891 18.3477 35.5605 19.168C37.0918 19.8652 38.5 19.7832 39.7852 18.8945C41.084 18.0059 42.041 16.8711 42.6562 15.4766ZM69.3984 21.8203C70.0547 22.4082 70.3691 23.1465 70.3281 24.0352C70.2871 24.9238 69.9727 25.6758 69.3984 26.291C68.7285 26.9199 67.9902 27.2207 67.1699 27.1797C66.3633 27.1387 65.6113 26.8516 64.9277 26.291C62.9453 24.6641 60.9219 23.0918 58.8574 21.5742C58.8574 22.6953 58.8438 23.8301 58.8301 24.9512C58.7344 26.3184 58.1875 27.2207 57.1621 27.6719C56.1367 28.123 55.125 28.123 54.1133 27.6719C53.1152 27.2207 52.5684 26.3184 52.5137 24.9512C52.5957 18.3477 52.5684 11.7441 52.4453 5.1543C52.4863 3.78711 53.0195 2.88477 54.0176 2.43359C55.0156 1.98242 56.041 1.98242 57.0527 2.43359C58.4199 1.99609 59.8281 1.75 61.3047 1.70898C62.7676 1.66797 64.1211 1.98242 65.3379 2.63867C67.8535 4.18359 69.2617 6.42578 69.5352 9.36523C69.5352 13.2344 67.9902 16.1875 64.873 18.2246C66.4043 19.4004 67.9082 20.5898 69.3984 21.8203ZM63.2324 10.3086C63.2051 9.00977 62.7266 8.28516 61.8105 8.14844C60.8945 8.01172 59.8965 8.12109 58.8164 8.49023C58.8438 10.4043 58.8574 12.3047 58.8711 14.2051C58.8984 14.2188 58.9258 14.2188 58.9668 14.2324C58.9805 14.2324 58.9941 14.2324 59.0078 14.2324C60.0469 13.9043 61.0039 13.4258 61.8516 12.7969C62.6992 12.168 63.1504 11.334 63.2324 10.3086ZM88.5664 1.88672C91.8066 2.67969 93.9805 4.60742 95.0879 7.66992C96.1953 10.7188 96.1816 13.7812 95.0469 16.8574C93.8848 19.7832 92.0391 22.2031 89.4688 24.1035C86.9121 26.0039 83.9863 26.4824 80.6914 25.5527C77.3965 24.2812 75.1816 22.0527 74.0605 18.8535C72.9258 15.6543 72.6934 12.4141 73.3496 9.10547C74.0195 6.16602 75.5371 3.92383 77.9023 2.37891C80.2676 0.833984 82.9199 0.164062 85.873 0.355469C87.0488 0.464844 87.9512 0.970703 88.5664 1.88672ZM88.8125 15.4766C89.0996 14.8477 89.3184 13.959 89.4824 12.8242C89.6328 11.6895 89.5645 10.6367 89.291 9.66602C89.0039 8.70898 88.3477 8.16211 87.3223 8.05273C86.1602 7.94336 85.3262 7.47852 84.834 6.6582C83.6172 6.67188 82.5098 6.97266 81.498 7.5332C80.5 8.08008 79.8438 8.99609 79.543 10.2539C79.2559 11.6211 79.2285 13.2344 79.4609 15.1211C79.6934 16.9941 80.4453 18.3477 81.7168 19.168C83.248 19.8652 84.6562 19.7832 85.9414 18.8945C87.2402 18.0059 88.1973 16.8711 88.8125 15.4766ZM121.639 5.45508C121.666 11.2656 121.68 17.0625 121.693 22.8594C121.598 24.2539 120.928 25.2109 119.711 25.7578C118.494 26.3047 117.346 26.0859 116.307 25.1016C113.08 21.4375 109.621 18.0332 105.93 14.875C106.723 18.7578 107.707 22.5996 108.896 26.4004C109.238 27.7129 108.979 28.7246 108.131 29.4219C107.283 30.1328 106.312 30.3926 105.191 30.2285C104.084 30.0645 103.277 29.3535 102.799 28.082C100.816 21.7246 99.3672 15.2441 98.4785 8.64062C98.3555 7.76562 98.4648 6.97266 98.8203 6.24805C99.1621 5.52344 99.791 5.03125 100.693 4.75781C100.803 4.73047 100.912 4.70312 101.035 4.68945C101.719 4.51172 102.443 4.66211 103.223 5.11328C107.639 7.94336 111.672 11.2109 115.35 14.9297C115.336 13.9863 115.336 13.043 115.336 12.0996C115.322 9.88477 115.322 7.66992 115.309 5.45508C115.377 4.10156 115.924 3.19922 116.936 2.74805C117.947 2.29688 118.959 2.29688 119.984 2.74805C120.996 3.19922 121.543 4.10156 121.639 5.45508ZM148.832 12.6465C150.486 16.0098 150.719 19.4414 149.516 22.9688C147.93 26.5508 145.318 28.8613 141.723 29.9004C138.113 30.9531 134.572 30.7617 131.072 29.3398C127.832 27.7266 125.822 25.1426 125.057 21.5605C124.168 18.2246 124.141 14.9023 124.988 11.5938C126.273 7.95703 128.734 5.49609 132.385 4.19727C134.189 3.60938 136.062 3.25391 137.963 3.14453C139.891 2.93945 141.422 3.5957 142.57 5.14062C143.062 5.87891 143.172 6.67188 142.898 7.51953C142.625 8.38086 142.133 9.02344 141.436 9.46094C140.383 10.0215 139.385 10.0488 138.469 9.5293C138.428 9.54297 138.359 9.54297 138.264 9.54297C138.168 9.54297 138.059 9.54297 137.936 9.5293C137.703 9.51562 137.525 9.51562 137.361 9.5293C136.842 9.57031 136.322 9.66602 135.803 9.78906C135.789 9.78906 135.762 9.78906 135.748 9.80273C134.941 9.95312 134.176 10.2266 133.451 10.5957C132.125 11.293 131.291 12.3594 130.936 13.7949C130.648 15.1758 130.594 16.6934 130.785 18.334C130.963 19.9746 131.469 21.3828 132.275 22.5723C133.273 23.7207 134.709 24.3223 136.582 24.3496C138.455 24.377 140.014 24.0352 141.258 23.3105C142.516 22.627 143.35 21.6152 143.787 20.2754C143.965 19.5645 144.033 18.8535 143.979 18.1289C143.896 18.1699 143.828 18.1973 143.773 18.2246C142.83 18.6484 141.873 19.0859 140.943 19.5234C140.137 19.9062 139.33 20.002 138.537 19.8242C137.744 19.6602 137.102 19.1816 136.609 18.3887C136.213 17.6504 136.104 16.8438 136.295 15.9824C136.486 15.1211 136.965 14.4785 137.744 14.0684C139.686 13.1387 141.654 12.2773 143.637 11.4844C144.566 11.0879 145.537 10.9238 146.535 10.9922C147.533 11.0605 148.299 11.6211 148.832 12.6465Z" fill="#ACBEFF"/>
</svg>
