<svg width="162" height="14" viewBox="0 0 162 14" fill="none" xmlns="http://www.w3.org/2000/svg">
<path d="M0.349609 6.79102V1.14453H6.55664V2.48438H1.93555V5.45117H6.89844V6.79102H0.349609ZM1.08789 10.7832C1.08789 9.14258 2.35938 8.28125 3.80859 8.28125H7.36328C8.8125 8.28125 10.084 9.14258 10.084 10.7832C10.084 12.3828 8.85352 13.2715 7.36328 13.2715H3.80859C2.31836 13.2715 1.08789 12.3828 1.08789 10.7832ZM2.67383 10.7832C2.67383 11.5762 3.09766 11.9316 4.01367 11.9316H7.1582C8.07422 11.9316 8.49805 11.5762 8.49805 10.7832C8.49805 10.0176 8.07422 9.62109 7.1582 9.62109H4.01367C3.09766 9.62109 2.67383 10.0176 2.67383 10.7832ZM8.25195 7.69336V0.720703H9.83789V3.16797H11.6836V4.50781H9.83789V7.69336H8.25195ZM12.2305 6.79102C13.5977 6.10742 15.5254 4.72656 15.5254 1.92383V1.00781H17.1113V2.00586C17.1113 2.15625 17.1113 2.30664 17.0977 2.45703C17.2344 4.30273 18.8066 6.02539 20.2695 6.72266L19.3945 7.91211C18.1367 7.17383 16.9746 6.03906 16.3867 4.71289C15.5254 6.25781 14.0898 7.39258 13.0371 7.9668L12.2305 6.79102ZM14.5273 13.2168V8.75977H16.1133V11.7402H23.4414V13.0801H16.1133V13.2168H14.5273ZM21.6777 9.40234V0.720703H23.2637V9.40234H21.6777ZM28.6914 2.06055C27.8027 2.06055 27.5566 2.23828 27.5566 2.64844C27.5566 3.07227 27.7754 3.25 28.6914 3.25H32.6562C33.5586 3.25 33.791 3.07227 33.791 2.64844C33.791 2.23828 33.5586 2.06055 32.6562 2.06055H28.6914ZM24.8906 6.8457V5.50586H36.4844V6.8457H24.8906ZM25.9434 2.64844C25.9434 1.37695 26.709 0.775391 28.4453 0.775391H32.9023C34.625 0.775391 35.4043 1.37695 35.4043 2.64844C35.4043 3.91992 34.5977 4.53516 32.9023 4.53516H28.4453C26.709 4.53516 25.9434 3.91992 25.9434 2.64844ZM26.1484 9.16992V7.93945H35.1445V11.0703H27.7891V11.8496H35.3633V13.0801H27.7891V13.2168H26.2031V9.92188H33.5586V9.16992H26.1484ZM44.4004 2.38867C43.5117 2.38867 42.6777 2.66211 42.6777 3.81055C42.6777 4.97266 43.4844 5.24609 44.4004 5.24609H45.1113C46 5.24609 46.8477 4.97266 46.8477 3.81055C46.8477 2.66211 46 2.38867 45.1113 2.38867H44.4004ZM40.6816 9.34766V8.00781H49.0215V9.34766H45.5625V13.1484H43.9766V9.34766H40.6816ZM41.1191 3.81055C41.1191 1.88281 42.4727 1.04883 44.0586 1.04883H45.4531C47.0391 1.04883 48.4062 1.88281 48.4062 3.81055C48.4062 5.73828 47.0117 6.58594 45.4531 6.58594H44.0586C42.459 6.58594 41.1191 5.73828 41.1191 3.81055ZM49.9785 13.2852V0.720703H51.5645V13.2852H49.9785ZM60.6699 3.00391H53.2461V1.66406H56.2539V0.488281H57.8398V1.66406H60.6699V3.00391ZM53.6836 6.09375C53.6836 4.49414 54.8867 3.72852 56.3223 3.72852H57.6074C59.043 3.72852 60.2461 4.49414 60.2461 6.09375C60.2461 7.69336 59.043 8.45898 57.6074 8.45898H56.3223C54.8867 8.45898 53.6836 7.69336 53.6836 6.09375ZM55.0508 13.2168V9.58008H56.6367V11.7402H63.5684V13.0801H56.6367V13.2168H55.0508ZM55.2695 6.09375C55.2695 6.77734 55.7207 7.14648 56.5547 7.14648H57.375C58.209 7.14648 58.6602 6.77734 58.6602 6.09375C58.6602 5.41016 58.209 5.04102 57.375 5.04102H56.5547C55.7207 5.04102 55.2695 5.41016 55.2695 6.09375ZM61.709 9.94922V0.720703H63.2949V3.98828H65.1406V5.32812H63.2949V9.94922H61.709ZM76.3926 3.00391H68.9688V1.66406H71.9766V0.488281H73.5625V1.66406H76.3926V3.00391ZM69.4062 6.09375C69.4062 4.49414 70.6094 3.72852 72.0449 3.72852H73.3301C74.7656 3.72852 75.9688 4.49414 75.9688 6.09375C75.9688 7.69336 74.7656 8.45898 73.3301 8.45898H72.0449C70.6094 8.45898 69.4062 7.69336 69.4062 6.09375ZM70.7734 13.2168V9.58008H72.3594V11.7402H79.291V13.0801H72.3594V13.2168H70.7734ZM70.9922 6.09375C70.9922 6.77734 71.4434 7.14648 72.2773 7.14648H73.0977C73.9316 7.14648 74.3828 6.77734 74.3828 6.09375C74.3828 5.41016 73.9316 5.04102 73.0977 5.04102H72.2773C71.4434 5.04102 70.9922 5.41016 70.9922 6.09375ZM77.4316 9.94922V0.720703H79.0176V3.98828H80.8633V5.32812H79.0176V9.94922H77.4316ZM90.2012 10.0859H82.6816V8.74609H86.4961V7.03711H81.4922V5.69727H93.0859V7.03711H88.082V8.74609H91.7871V13.2168H90.2012V10.0859ZM82.6543 2.29297V0.953125H91.7324C91.7188 2.55273 91.7324 3.26367 91.4727 5.02734L89.8867 4.86328C90.0918 3.70117 90.1055 3.31836 90.1328 2.29297H82.6543ZM96.9551 6.2168C97.9941 5.65625 99.5391 4.69922 99.5391 1.75977V1.07617H101.098V1.8418C101.098 2.00586 101.098 2.16992 101.084 2.33398C101.139 4.01562 102.26 5.31445 103.504 6.12109L102.684 7.26953C101.795 6.75 100.879 5.80664 100.387 4.68555C99.6895 5.99805 98.623 6.91406 97.7754 7.39258L96.9551 6.2168ZM98.8145 10.7832C98.8145 9.14258 100.168 8.28125 101.617 8.28125H105.691C107.141 8.28125 108.494 9.14258 108.494 10.7832C108.494 12.3828 107.182 13.2715 105.691 13.2715H101.617C100.127 13.2715 98.8145 12.3828 98.8145 10.7832ZM100.4 10.7832C100.4 11.5762 100.906 11.9316 101.822 11.9316H105.486C106.402 11.9316 106.908 11.5762 106.908 10.7832C106.908 10.0176 106.402 9.62109 105.486 9.62109H101.822C100.906 9.62109 100.4 10.0176 100.4 10.7832ZM104.064 7.40625V0.857422H105.623V3.12695H106.785V0.720703H108.344V7.69336H106.785V4.4668H105.623V7.40625H104.064ZM117.176 2.45703H109.889V1.28125H112.855V0.324219H114.441V1.28125H117.176V2.45703ZM109.725 7.88477V6.70898H112.869V6.05273H112.705C111.42 6.05273 110.395 5.68359 110.395 4.52148C110.395 3.35938 111.42 2.99023 112.705 2.99023H114.564C115.85 2.99023 116.875 3.35938 116.875 4.52148C116.875 5.68359 115.85 6.05273 114.564 6.05273H114.441V6.70898H117.367V7.88477H109.725ZM111.283 9.68945V8.54102H119.91V11.3027H112.924V11.9316H120.184V13.0801H112.924V13.2168H111.338V10.291H118.324V9.68945H111.283ZM111.953 4.52148C111.953 4.86328 112.213 4.93164 113.033 4.93164H114.236C115.016 4.93164 115.316 4.86328 115.316 4.52148C115.316 4.17969 115.016 4.11133 114.236 4.11133H113.033C112.213 4.11133 111.953 4.17969 111.953 4.52148ZM118.324 8.03516V0.720703H119.91V3.3457H121.77V4.68555H119.91V8.03516H118.324ZM125.816 5.72461C128.332 5.31445 130.629 3.93359 130.807 2.48438H126.158V1.14453H132.516C132.516 4.37109 129.973 6.3125 126.254 7.02344L125.816 5.72461ZM127.689 8.85547V7.59766H136.467V10.9336H129.33V11.8223H136.74V13.0801H129.33V13.2168H127.744V9.75781H134.881V8.85547H127.689ZM134.881 6.85938V0.720703H136.467V6.85938H134.881ZM137.957 6.28516C140.145 5.30078 142.182 3.83789 142.783 2.41602H138.586V1.07617H144.615V2.0332C144.342 2.79883 143.863 3.57812 143.193 4.31641C143.85 4.94531 144.861 5.61523 146.051 6.23047L145.271 7.41992C143.836 6.61328 142.811 5.86133 142.195 5.28711C141.238 6.10742 140.062 6.87305 138.695 7.5293L137.957 6.28516ZM139.953 13.2168V8.22656H141.539V9.2793H146.611V8.22656H148.197V13.2168H146.611V13.0801H141.539V13.2168H139.953ZM141.539 11.7402H146.611V10.5918H141.539V11.7402ZM146.611 7.35156V0.720703H148.197V3.16797H150.043V4.50781H148.197V7.35156H146.611ZM156.031 4.69922C156.031 3.33203 155.457 2.63477 154.5 2.63477C153.529 2.63477 152.955 3.31836 152.955 4.69922V7.21484C152.955 8.5957 153.529 9.2793 154.5 9.2793C155.457 9.2793 156.031 8.58203 156.031 7.21484V4.69922ZM151.369 7.39258V4.52148C151.369 2.49805 152.531 1.29492 154.5 1.29492C156.469 1.29492 157.617 2.48438 157.617 4.52148V7.39258C157.617 9.42969 156.469 10.6191 154.5 10.6191C152.531 10.6191 151.369 9.41602 151.369 7.39258ZM160.037 13.2852V0.720703H161.623V13.2852H160.037Z" fill="white" fill-opacity="0.87"/>
</svg>
