<svg width="20" height="20" viewBox="0 0 20 20" fill="none" xmlns="http://www.w3.org/2000/svg">
<path d="M10.0083 1.25H9.99993C7.8 1.25 6.0166 3.0334 6.0166 5.23333V10.0167C6.0166 12.2166 7.8 14 9.99993 14H10.0083C12.2082 14 13.9916 12.2166 13.9916 10.0167V5.23333C13.9916 3.0334 12.2082 1.25 10.0083 1.25Z" stroke="white" stroke-opacity="0.87" stroke-miterlimit="10"/>
<path d="M17.1752 10C17.1774 10.9436 16.9934 11.8784 16.6338 12.7509C16.2742 13.6233 15.7461 14.4162 15.0796 15.0843C14.4131 15.7523 13.6214 16.2823 12.7498 16.6439C11.8782 17.0055 10.9439 17.1917 10.0002 17.1917C9.05658 17.1917 8.12221 17.0055 7.25061 16.6439C6.37901 16.2823 5.5873 15.7523 4.92082 15.0843C4.25434 14.4162 3.72618 13.6233 3.36659 12.7509C3.00699 11.8784 2.82302 10.9436 2.82521 10" stroke="white" stroke-opacity="0.87" stroke-miterlimit="10"/>
<path d="M10 19.5833V17.1917" stroke="white" stroke-opacity="0.87" stroke-width="2" stroke-miterlimit="10"/>
</svg>
