<svg width="20" height="20" viewBox="0 0 20 20" fill="none" xmlns="http://www.w3.org/2000/svg">
<g clip-path="url(#clip0_399_5355)">
<path d="M15.5664 6.81667C15.5664 10.9917 9.99977 15.8333 9.99977 15.8333C9.99977 15.8333 4.43311 10.9917 4.43311 6.81667C4.43311 5.3403 5.01959 3.92439 6.06354 2.88044C7.1075 1.83649 8.5234 1.25 9.99977 1.25C11.4761 1.25 12.892 1.83649 13.936 2.88044C14.98 3.92439 15.5664 5.3403 15.5664 6.81667Z" stroke="white" stroke-opacity="0.87" stroke-miterlimit="10"/>
<path d="M12.3834 5.2251H9.60003C9.28398 5.2251 8.98088 5.35065 8.7574 5.57413C8.53392 5.79761 8.40837 6.10071 8.40837 6.41676C8.40727 6.57396 8.43728 6.72981 8.49667 6.87536C8.55607 7.0209 8.64367 7.15325 8.75444 7.26479C8.8652 7.37633 8.99694 7.46486 9.14207 7.52526C9.28719 7.58567 9.44284 7.61677 9.60003 7.61676H10.4334C10.7494 7.61676 11.0525 7.74231 11.276 7.9658C11.4995 8.18928 11.625 8.49238 11.625 8.80843C11.6251 8.96777 11.5932 9.1255 11.5312 9.27229C11.4693 9.41909 11.3785 9.55197 11.2643 9.66307C11.1501 9.77418 11.0148 9.86125 10.8663 9.91914C10.7179 9.97703 10.5593 10.0046 10.4 10.0001H7.6167" stroke="white" stroke-opacity="0.87" stroke-miterlimit="10"/>
<path d="M10 3.6333V5.22497" stroke="white" stroke-opacity="0.87" stroke-miterlimit="10"/>
<path d="M10 10V11.5917" stroke="white" stroke-opacity="0.87" stroke-miterlimit="10"/>
<path d="M13.7667 11.5916H16.3667L18.75 18.7499H1.25L3.63333 11.5916H6.24167" stroke="white" stroke-opacity="0.87" stroke-miterlimit="10"/>
</g>
<defs>
<clipPath id="clip0_399_5355">
<rect width="20" height="20" fill="white"/>
</clipPath>
</defs>
</svg>
