<svg width="20" height="20" viewBox="0 0 20 20" fill="none" xmlns="http://www.w3.org/2000/svg">
<path d="M17.1581 18.75H4.43311C4.12057 18.7449 3.81644 18.648 3.55866 18.4712C3.30088 18.2944 3.10085 18.0456 2.98354 17.7559C2.86623 17.4662 2.83682 17.1483 2.89898 16.842C2.96115 16.5357 3.11213 16.2544 3.33311 16.0333C3.48026 15.8848 3.65552 15.767 3.84867 15.6869C4.04182 15.6067 4.249 15.5659 4.45811 15.5667H17.1581" stroke="white" stroke-opacity="0.87" stroke-miterlimit="10"/>
<path d="M16.3667 15.5667V18.75" stroke="white" stroke-opacity="0.87" stroke-miterlimit="10"/>
<path d="M17.1585 1.25V15.5667H4.43346C4.01133 15.5667 3.60648 15.7344 3.30799 16.0329C3.00949 16.3314 2.8418 16.7362 2.8418 17.1583V2.84167C2.84399 2.42021 3.01238 2.01663 3.3104 1.71861C3.60843 1.42059 4.012 1.25219 4.43346 1.25H17.1585Z" stroke="white" stroke-opacity="0.87" stroke-miterlimit="10"/>
<path d="M10.0002 11.5917L8.39189 10.8L6.81689 11.5917V1.25H10.0002V11.5917Z" stroke="white" stroke-opacity="0.87" stroke-miterlimit="10"/>
</svg>
