<svg width="20" height="20" viewBox="0 0 20 20" fill="none" xmlns="http://www.w3.org/2000/svg">
<path d="M13.1836 8.39158L6.81689 11.5749V5.20825L13.1836 8.39158Z" stroke="white" stroke-opacity="0.87" stroke-miterlimit="10"/>
<path d="M1.25 4.41673V12.3667C1.25 13.211 1.58539 14.0207 2.18238 14.6177C2.77937 15.2147 3.58906 15.5501 4.43333 15.5501H6.025V17.9334L10.8333 15.5501H15.6083C16.4526 15.5501 17.2623 15.2147 17.8593 14.6177C18.4563 14.0207 18.7917 13.211 18.7917 12.3667V4.41673C18.7917 3.57246 18.4563 2.76277 17.8593 2.16578C17.2623 1.56878 16.4526 1.2334 15.6083 1.2334H4.43333C3.58906 1.2334 2.77937 1.56878 2.18238 2.16578C1.58539 2.76277 1.25 3.57246 1.25 4.41673Z" stroke="white" stroke-opacity="0.87" stroke-miterlimit="10"/>
</svg>
