<svg width="32" height="32" viewBox="0 0 32 32" fill="none" xmlns="http://www.w3.org/2000/svg">
<path d="M27.9998 5.33325C27.1998 5.33325 23.1998 5.33325 15.9998 5.33325C8.93317 5.33325 4.6665 5.33325 3.99984 5.33325C3.33317 5.33325 2.6665 5.86659 2.6665 6.66659V25.3333C2.6665 26.1333 3.33317 26.6666 3.99984 26.6666C4.79984 26.6666 8.6665 26.6666 15.9998 26.6666C23.1998 26.6666 27.1998 26.6666 27.9998 26.6666C28.6665 26.6666 29.3332 26.1333 29.3332 25.3333V6.66659C29.3332 5.86659 28.6665 5.33325 27.9998 5.33325ZM26.6665 23.4666C24.6665 23.4666 20.5332 23.4666 15.9998 23.4666C11.4665 23.4666 7.99971 23.4666 5.33317 23.4666V8.53325C9.59971 8.53325 12.3998 8.53325 15.9998 8.53325C20.5332 8.53325 23.9997 8.53325 26.6665 8.53325V23.4666ZM12.2665 14.6666L7.33317 20.5332C9.99984 20.1332 12.9332 19.9999 15.9998 19.9999C19.0665 19.9999 21.9998 20.1332 24.6665 20.5332L18.6665 13.3333L14.9332 17.8666L12.2665 14.6666Z" fill="url(#paint0_linear_381_6498)"/>
<path d="M27.9998 5.33301C27.1998 5.33301 23.1998 5.33301 15.9998 5.33301C8.93317 5.33301 4.6665 5.33301 3.99984 5.33301C3.33317 5.33301 2.6665 5.86634 2.6665 6.66634V25.333C2.6665 26.133 3.33317 26.6663 3.99984 26.6663C4.79984 26.6663 8.6665 26.6663 15.9998 26.6663C23.1998 26.6663 27.1998 26.6663 27.9998 26.6663C28.6665 26.6663 29.3332 26.133 29.3332 25.333V6.66634C29.3332 5.86634 28.6665 5.33301 27.9998 5.33301ZM26.6665 23.4663C24.6665 23.4663 20.5332 23.4663 15.9998 23.4663C11.4665 23.4663 7.99971 23.4663 5.33317 23.4663V8.53301C9.59971 8.53301 12.3998 8.53301 15.9998 8.53301C20.5332 8.53301 23.9997 8.53301 26.6665 8.53301V23.4663ZM12.2665 14.6663L7.33317 20.533C9.99984 20.133 12.9332 19.9997 15.9998 19.9997C19.0665 19.9997 21.9998 20.133 24.6665 20.533L18.6665 13.333L14.9332 17.8663L12.2665 14.6663Z" fill="url(#paint1_linear_381_6498)" fill-opacity="0.4"/>
<defs>
<linearGradient id="paint0_linear_381_6498" x1="5.2265" y1="6.20792" x2="21.7423" y2="29.4396" gradientUnits="userSpaceOnUse">
<stop stop-color="#68F6FF"/>
<stop offset="1" stop-color="#0038FF"/>
</linearGradient>
<linearGradient id="paint1_linear_381_6498" x1="5.2265" y1="6.20767" x2="21.7423" y2="29.4393" gradientUnits="userSpaceOnUse">
<stop stop-color="#22DFEB"/>
<stop offset="1" stop-color="#ACBEFF"/>
</linearGradient>
</defs>
</svg>
