<svg width="32" height="32" viewBox="0 0 32 32" fill="none" xmlns="http://www.w3.org/2000/svg">
<path d="M15.9998 2.66675C17.7508 2.66675 19.4846 3.01162 21.1023 3.68169C22.72 4.35175 24.1898 5.33388 25.4279 6.57199C26.666 7.81011 27.6482 9.27996 28.3182 10.8976C28.9883 12.5153 29.3332 14.2491 29.3332 16.0001C29.3332 19.5363 27.9284 22.9277 25.4279 25.4282C22.9274 27.9287 19.5361 29.3334 15.9998 29.3334C14.2489 29.3334 12.5151 28.9885 10.8974 28.3185C9.27972 27.6484 7.80986 26.6663 6.57175 25.4282C4.07126 22.9277 2.6665 19.5363 2.6665 16.0001C2.6665 12.4639 4.07126 9.07248 6.57175 6.57199C9.07223 4.07151 12.4636 2.66675 15.9998 2.66675ZM10.6665 10.2801V14.7334L20.1865 16.0001L10.6665 17.2667V21.7201L23.9998 16.0001L10.6665 10.2801Z" fill="url(#paint0_linear_381_6501)"/>
<path d="M15.9998 2.66675C17.7508 2.66675 19.4846 3.01162 21.1023 3.68169C22.72 4.35175 24.1898 5.33388 25.4279 6.57199C26.666 7.81011 27.6482 9.27996 28.3182 10.8976C28.9883 12.5153 29.3332 14.2491 29.3332 16.0001C29.3332 19.5363 27.9284 22.9277 25.4279 25.4282C22.9274 27.9287 19.5361 29.3334 15.9998 29.3334C14.2489 29.3334 12.5151 28.9885 10.8974 28.3185C9.27972 27.6484 7.80986 26.6663 6.57175 25.4282C4.07126 22.9277 2.6665 19.5363 2.6665 16.0001C2.6665 12.4639 4.07126 9.07248 6.57175 6.57199C9.07223 4.07151 12.4636 2.66675 15.9998 2.66675ZM10.6665 10.2801V14.7334L20.1865 16.0001L10.6665 17.2667V21.7201L23.9998 16.0001L10.6665 10.2801Z" fill="url(#paint1_linear_381_6501)" fill-opacity="0.3"/>
<defs>
<linearGradient id="paint0_linear_381_6501" x1="5.2265" y1="3.76008" x2="26.9332" y2="28.1867" gradientUnits="userSpaceOnUse">
<stop stop-color="#68F6FF"/>
<stop offset="1" stop-color="#0038FF"/>
</linearGradient>
<linearGradient id="paint1_linear_381_6501" x1="27.3598" y1="3.89341" x2="4.69317" y2="28.2134" gradientUnits="userSpaceOnUse">
<stop stop-color="#A5C9FF" stop-opacity="0.4"/>
<stop offset="0.482639" stop-color="white"/>
<stop offset="1" stop-color="#C9ECFF" stop-opacity="0"/>
</linearGradient>
</defs>
</svg>
