<svg width="20" height="21" viewBox="0 0 20 21" fill="none" xmlns="http://www.w3.org/2000/svg">
<path d="M17.4998 4.02625C16.9998 4.02625 14.4998 4.02625 9.99984 4.02625C5.58317 4.02625 2.9165 4.02625 2.49984 4.02625C2.08317 4.02625 1.6665 4.35958 1.6665 4.85958V16.5262C1.6665 17.0262 2.08317 17.3596 2.49984 17.3596C2.99984 17.3596 5.4165 17.3596 9.99984 17.3596C14.4998 17.3596 16.9998 17.3596 17.4998 17.3596C17.9165 17.3596 18.3332 17.0262 18.3332 16.5262V4.85958C18.3332 4.35958 17.9165 4.02625 17.4998 4.02625ZM16.6665 15.3596C15.4165 15.3596 12.8332 15.3596 9.99984 15.3596C7.1665 15.3596 4.99976 15.3596 3.33317 15.3596V6.02625C5.99976 6.02625 7.74984 6.02625 9.99984 6.02625C12.8332 6.02625 14.9998 6.02625 16.6665 6.02625V15.3596ZM7.6665 9.85958L4.58317 13.5262C6.24984 13.2762 8.08317 13.1929 9.99984 13.1929C11.9165 13.1929 13.7498 13.2762 15.4165 13.5262L11.6665 9.02625L9.33317 11.8596L7.6665 9.85958Z" fill="white" fill-opacity="0.87"/>
</svg>
