<svg width="24" height="29" viewBox="0 0 24 29" fill="none" xmlns="http://www.w3.org/2000/svg">
<path fill-rule="evenodd" clip-rule="evenodd" d="M12 0C18.6274 0 24 5.37258 24 12C24 17.0815 20.8416 21.4252 16.3808 23.1752L12.6835 28.2289C12.6064 28.3347 12.5041 28.4211 12.3851 28.4807C12.2661 28.5403 12.1341 28.5714 12 28.5714C11.8659 28.5714 11.7339 28.5403 11.6149 28.4807C11.4959 28.4211 11.3936 28.3347 11.3165 28.2289L7.61923 23.1752C3.15843 21.4252 0 17.0815 0 12C0 5.37258 5.37258 0 12 0Z" fill="#ACBEFF"/>
<path d="M17.1441 12.0003C17.1441 9.15996 14.8416 6.85742 12.0013 6.85742C9.16093 6.85742 6.8584 9.15996 6.8584 12.0003C6.8584 14.8406 9.16093 17.1431 12.0013 17.1431C14.8416 17.1431 17.1441 14.8406 17.1441 12.0003Z" fill="white" fill-opacity="0.87"/>
</svg>
