<svg width="32" height="32" viewBox="0 0 32 32" fill="none" xmlns="http://www.w3.org/2000/svg">
<path d="M16 32C24.8366 32 32 24.8366 32 16C32 7.16344 24.8366 0 16 0C7.16344 0 0 7.16344 0 16C0 24.8366 7.16344 32 16 32Z" fill="url(#paint0_linear_233_2779)" fill-opacity="0.4"/>
<path d="M16.0003 23.6801C20.2419 23.6801 23.6803 20.2416 23.6803 16.0001C23.6803 11.7585 20.2419 8.32007 16.0003 8.32007C11.7588 8.32007 8.32031 11.7585 8.32031 16.0001C8.32031 20.2416 11.7588 23.6801 16.0003 23.6801Z" fill="white"/>
<path d="M15.9996 22.4001C19.5342 22.4001 22.3996 19.5347 22.3996 16.0001C22.3996 12.4655 19.5342 9.6001 15.9996 9.6001C12.465 9.6001 9.59961 12.4655 9.59961 16.0001C9.59961 19.5347 12.465 22.4001 15.9996 22.4001Z" fill="#ACBEFF"/>
<path fill-rule="evenodd" clip-rule="evenodd" d="M19.1998 8.32001L15.9998 5.76001L12.7998 8.32001C13.8099 8.02645 14.8848 7.86817 15.9998 7.86817C17.1148 7.86817 18.1898 8.02645 19.1998 8.32001Z" fill="#ACBEFF"/>
<defs>
<linearGradient id="paint0_linear_233_2779" x1="3.072" y1="1.312" x2="29.12" y2="30.624" gradientUnits="userSpaceOnUse">
<stop stop-color="#22DFEB"/>
<stop offset="1" stop-color="#ACBEFF"/>
</linearGradient>
</defs>
</svg>
