<svg width="32" height="32" viewBox="0 0 32 32" fill="none" xmlns="http://www.w3.org/2000/svg">
<path d="M16 2.66666C17.7509 2.66666 19.4847 3.01154 21.1024 3.6816C22.7201 4.35167 24.1899 5.33379 25.428 6.57191C26.6662 7.81002 27.6483 9.27988 28.3184 10.8976C28.9884 12.5152 29.3333 14.249 29.3333 16C29.3333 19.5362 27.9285 22.9276 25.428 25.4281C22.9276 27.9286 19.5362 29.3333 16 29.3333C14.249 29.3333 12.5152 28.9885 10.8975 28.3184C9.27984 27.6483 7.80998 26.6662 6.57187 25.4281C4.07138 22.9276 2.66663 19.5362 2.66663 16C2.66663 12.4638 4.07138 9.07239 6.57187 6.57191C9.07235 4.07142 12.4637 2.66666 16 2.66666ZM10.6666 10.28V14.7333L20.1866 16L10.6666 17.2667V21.72L24 16L10.6666 10.28Z" fill="url(#paint0_linear_122_2360)"/>
<path d="M16 2.66666C17.7509 2.66666 19.4847 3.01154 21.1024 3.6816C22.7201 4.35167 24.1899 5.33379 25.4281 6.57191C26.6662 7.81002 27.6483 9.27988 28.3184 10.8976C28.9884 12.5152 29.3333 14.249 29.3333 16C29.3333 19.5362 27.9285 22.9276 25.4281 25.4281C22.9276 27.9286 19.5362 29.3333 16 29.3333C14.249 29.3333 12.5152 28.9885 10.8975 28.3184C9.27984 27.6483 7.80998 26.6662 6.57187 25.4281C4.07138 22.9276 2.66663 19.5362 2.66663 16C2.66663 12.4638 4.07138 9.07239 6.57187 6.57191C9.07235 4.07142 12.4637 2.66666 16 2.66666ZM10.6666 10.28V14.7333L20.1866 16L10.6666 17.2667V21.72L24 16L10.6666 10.28Z" fill="url(#paint1_linear_122_2360)" fill-opacity="0.3"/>
<defs>
<linearGradient id="paint0_linear_122_2360" x1="5.22663" y1="3.76" x2="26.9333" y2="28.1867" gradientUnits="userSpaceOnUse">
<stop stop-color="#68F6FF"/>
<stop offset="1" stop-color="#0038FF"/>
</linearGradient>
<linearGradient id="paint1_linear_122_2360" x1="27.36" y1="3.89333" x2="4.69329" y2="28.2133" gradientUnits="userSpaceOnUse">
<stop stop-color="#DDFFED"/>
<stop offset="0.482639" stop-color="white"/>
<stop offset="1" stop-color="#C9ECFF" stop-opacity="0"/>
</linearGradient>
</defs>
</svg>
